<svg className="entry-image" viewBox="0 0 800 600" xmlns="http://www.w3.org/2000/svg">
  <defs>
    <linearGradient id="bgGrad" x1="0%" y1="0%" x2="100%" y2="100%">
      <stop offset="0%" stopColor="#E3F2FD" />
      <stop offset="100%" stopColor="#BBDEFB" />
    </linearGradient>
    <filter id="dropShadow">
      <feDropShadow dx="3" dy="4" stdDeviation="5" floodOpacity="0.25"/>
    </filter>
    <filter id="softShadow">
      <feDropShadow dx="1" dy="2" stdDeviation="2" floodOpacity="0.15"/>
    </filter>
    <radialGradient id="screenGlow" cx="50%" cy="50%" r="50%">
      <stop offset="0%" stopColor="#E8F5E8" />
      <stop offset="100%" stopColor="#C8E6C9" />
    </radialGradient>
    <linearGradient id="codeGrad" x1="0%" y1="0%" x2="100%" y2="0%">
      <stop offset="0%" stopColor="#2E7D32" />
      <stop offset="50%" stopColor="#4CAF50" />
      <stop offset="100%" stopColor="#66BB6A" />
    </linearGradient>
    <linearGradient id="browserGrad" x1="0%" y1="0%" x2="100%" y2="0%">
      <stop offset="0%" stopColor="#FFFFFF" />
      <stop offset="100%" stopColor="#F5F5F5" />
    </linearGradient>
  </defs>

  <!-- Background elements -->
  <ellipse cx="400" cy="300" rx="380" ry="280" fill="url(#bgGrad)" opacity="0.4"/>
  <circle cx="150" cy="120" r="80" fill="#E1F5FE" opacity="0.3"/>
  <circle cx="650" cy="480" r="100" fill="#B3E5FC" opacity="0.2"/>

  <!-- Desk -->
  <rect x="200" y="350" width="400" height="20" fill="#8D6E63" rx="10" filter="url(#dropShadow)"/>
  <rect x="180" y="360" width="440" height="15" fill="#A1887F" rx="8"/>
  <rect x="190" y="365" width="420" height="10" fill="#BCAAA4" rx="5"/>

  <!-- Laptop -->
  <g filter="url(#dropShadow)">
    <!-- Laptop base -->
    <rect x="300" y="320" width="200" height="15" fill="#37474F" rx="3"/>
    <rect x="305" y="325" width="190" height="5" fill="#546E7A" rx="2"/>

    <!-- Laptop screen -->
    <rect x="320" y="200" width="160" height="120" fill="#263238" rx="5"/>
    <rect x="325" y="205" width="150" height="110" fill="url(#screenGlow)" rx="3"/>

    <!-- Enhanced IDE Interface -->
    <!-- Menu bar -->
    <rect x="330" y="210" width="140" height="8" fill="#424242" rx="1"/>
    <rect x="332" y="212" width="20" height="4" fill="#757575" rx="0.5"/>
    <rect x="355" y="212" width="30" height="4" fill="#757575" rx="0.5"/>
    <rect x="388" y="212" width="25" height="4" fill="#757575" rx="0.5"/>
    <rect x="416" y="212" width="35" height="4" fill="#757575" rx="0.5"/>
    <rect x="454" y="212" width="12" height="4" fill="#757575" rx="0.5"/>

    <!-- Tabs -->
    <rect x="330" y="220" width="35" height="6" fill="#2D2D30" rx="1"/>
    <rect x="367" y="220" width="35" height="6" fill="#007ACC" rx="1"/>
    <rect x="404" y="220" width="35" height="6" fill="#2D2D30" rx="1"/>
    <rect x="441" y="220" width="29" height="6" fill="#2D2D30" rx="1"/>
    <text x="340" y="225" fill="#CCCCCC" font-size="5" font-family="Arial">App.jsx</text>
    <text x="377" y="225" fill="#FFFFFF" font-size="5" font-family="Arial">HomePage.jsx</text>
    <text x="414" y="225" fill="#CCCCCC" font-size="5" font-family="Arial">UserProfile.jsx</text>
    <text x="451" y="225" fill="#CCCCCC" font-size="5" font-family="Arial">...</text>

    <!-- File Explorer Sidebar -->
    <rect x="330" y="228" width="25" height="77" fill="#252526" rx="1"/>
    <text x="335" y="240" fill="#CCCCCC" font-size="6" font-family="Arial">📁 src</text>
    <text x="340" y="250" fill="#CCCCCC" font-size="5" font-family="Arial">📄 App.jsx</text>
    <text x="340" y="258" fill="#CCCCCC" font-size="5" font-family="Arial">📄 main.jsx</text>
    <text x="340" y="266" fill="#CCCCCC" font-size="5" font-family="Arial">📁 Components</text>
    <text x="340" y="274" fill="#CCCCCC" font-size="5" font-family="Arial">📁 Pages</text>
    <text x="340" y="282" fill="#CCCCCC" font-size="5" font-family="Arial">📁 Services</text>

    <!-- Code editor area -->
    <rect x="358" y="228" width="112" height="77" fill="#1E1E1E" rx="1"/>

    <!-- Line numbers -->
    <g fill="#858585" font-size="7" font-family="monospace">
      <text x="363" y="240">1</text>
      <text x="363" y="248">2</text>
      <text x="363" y="256">3</text>
      <text x="363" y="264">4</text>
      <text x="363" y="272">5</text>
      <text x="363" y="280">6</text>
      <text x="363" y="288">7</text>
      <text x="363" y="296">8</text>
    </g>

    <!-- Enhanced Code content -->
    <g font-size="7" font-family="monospace">
      <!-- Line 1 -->
      <text x="375" y="240" fill="#569CD6">import</text>
      <text x="405" y="240" fill="#D4D4D4">React</text>
      <text x="430" y="240" fill="#D4D4D4">from</text>
      <text x="450" y="240" fill="#CE9178">'react'</text>

      <!-- Line 2 -->
      <text x="375" y="248" fill="#569CD6">import</text>
      <text x="405" y="248" fill="#D4D4D4">HomePage</text>
      <text x="445" y="248" fill="#D4D4D4">from</text>
      <text x="465" y="248" fill="#CE9178">'./Pages/HomePage'</text>

      <!-- Line 3 -->
      <text x="375" y="256" fill="#569CD6">function</text>
      <text x="415" y="256" fill="#DCDCAA">App</text>
      <text x="430" y="256" fill="#D4D4D4">() {</text>

      <!-- Line 4 -->
      <text x="385" y="264" fill="#C586C0">  return</text>
      <text x="415" y="264" fill="#D4D4D4">(</text>

      <!-- Line 5 -->
      <text x="395" y="272" fill="#D4D4D4">    &lt;</text>
      <text x="405" y="272" fill="#4EC9B0">div</text>
      <text x="420" y="272" fill="#9CDCFE">className</text>
      <text x="455" y="272" fill="#D4D4D4">=</text>
      <text x="465" y="272" fill="#CE9178">"app"</text>
      <text x="475" y="272" fill="#D4D4D4">&gt;</text>

      <!-- Line 6 -->
      <text x="405" y="280" fill="#D4D4D4">      &lt;</text>
      <text x="415" y="280" fill="#4EC9B0">HomePage</text>
      <text x="450" y="280" fill="#D4D4D4">/&gt;</text>

      <!-- Line 7 -->
      <text x="395" y="288" fill="#D4D4D4">    &lt;/</text>
      <text x="410" y="288" fill="#4EC9B0">div</text>
      <text x="425" y="288" fill="#D4D4D4">&gt;</text>

      <!-- Line 8 -->
      <text x="385" y="296" fill="#D4D4D4">  );</text>

      <!-- Line 9 -->
      <text x="375" y="304" fill="#D4D4D4">}</text>
    </g>
  </g>

  <!-- Keyboard -->
  <g filter="url(#softShadow)">
    <rect x="310" y="335" width="180" height="8" fill="#424242" rx="2"/>
    <rect x="315" y="340" width="170" height="3" fill="#616161" rx="1"/>

    <!-- Keyboard keys -->
    <g fill="#757575">
      <rect x="320" y="343" width="4" height="4" rx="0.5"/>
      <rect x="327" y="343" width="4" height="4" rx="0.5"/>
      <rect x="334" y="343" width="4" height="4" rx="0.5"/>
      <rect x="341" y="343" width="4" height="4" rx="0.5"/>
      <rect x="348" y="343" width="4" height="4" rx="0.5"/>
      <rect x="355" y="343" width="4" height="4" rx="0.5"/>
      <rect x="362" y="343" width="4" height="4" rx="0.5"/>
      <rect x="369" y="343" width="4" height="4" rx="0.5"/>
      <rect x="376" y="343" width="4" height="4" rx="0.5"/>
      <rect x="383" y="343" width="4" height="4" rx="0.5"/>
      <rect x="390" y="343" width="4" height="4" rx="0.5"/>
      <rect x="397" y="343" width="4" height="4" rx="0.5"/>
      <rect x="404" y="343" width="4" height="4" rx="0.5"/>
      <rect x="411" y="343" width="4" height="4" rx="0.5"/>
      <rect x="418" y="343" width="4" height="4" rx="0.5"/>
      <rect x="425" y="343" width="4" height="4" rx="0.5"/>
      <rect x="432" y="343" width="4" height="4" rx="0.5"/>
      <rect x="439" y="343" width="4" height="4" rx="0.5"/>
      <rect x="446" y="343" width="4" height="4" rx="0.5"/>
      <rect x="453" y="343" width="4" height="4" rx="0.5"/>
      <rect x="460" y="343" width="4" height="4" rx="0.5"/>
      <rect x="467" y="343" width="4" height="4" rx="0.5"/>
    </g>
  </g>

  <!-- Mouse -->
  <g filter="url(#softShadow)">
    <ellipse cx="520" cy="370" rx="12" ry="18" fill="#E0E0E0"/>
    <ellipse cx="520" cy="370" rx="10" ry="15" fill="#F5F5F5"/>
    <rect x="515" y="355" width="10" height="3" fill="#BDBDBD" rx="1"/>
    <ellipse cx="520" cy="382" rx="8" ry="4" fill="#BDBDBD"/>
    <line x1="516" y1="382" x2="524" y2="382" stroke="#9E9E9E" strokeWidth="1"/>
  </g>

  <!-- Coffee mug -->
  <g filter="url(#softShadow)">
    <ellipse cx="580" cy="380" rx="18" ry="8" fill="#8D6E63"/>
    <rect x="562" y="320" width="36" height="60" fill="#FFFFFF" rx="4"/>
    <rect x="565" y="323" width="30" height="54" fill="#F5F5F5" rx="3"/>
    <rect x="562" y="350" width="3" height="3" fill="#8D6E63"/>
    <ellipse cx="580" cy="320" rx="18" ry="6" fill="#8D6E63"/>
    <ellipse cx="580" cy="320" rx="15" ry="4" fill="#A1887F"/>
  </g>

  <!-- Plant -->
  <g filter="url(#softShadow)">
    <rect x="120" y="320" width="8" height="80" fill="#8D6E63" rx="4"/>
    <ellipse cx="124" cy="320" rx="12" ry="8" fill="#8D6E63"/>
    <ellipse cx="124" cy="320" rx="10" ry="6" fill="#A1887F"/>

    <!-- Leaves -->
    <ellipse cx="100" cy="300" rx="25" ry="15" fill="#4CAF50" transform="rotate(-30 100 300)"/>
    <ellipse cx="110" cy="290" rx="20" ry="12" fill="#66BB6A" transform="rotate(-15 110 290)"/>
    <ellipse cx="140" cy="285" rx="22" ry="14" fill="#81C784" transform="rotate(25 140 285)"/>
    <ellipse cx="150" cy="300" rx="18" ry="11" fill="#A5D6A7" transform="rotate(45 150 300)"/>
    <ellipse cx="130" cy="275" rx="15" ry="10" fill="#4CAF50" transform="rotate(10 130 275)"/>
  </g>

  <!-- Browser Window -->
  <g filter="url(#dropShadow)">
    <rect x="550" y="150" width="180" height="120" fill="#FFFFFF" rx="5"/>
    <rect x="550" y="150" width="180" height="25" fill="#F8F9FA" rx="5"/>
    <circle cx="565" cy="162" r="4" fill="#FF5F57"/>
    <circle cx="580" cy="162" r="4" fill="#FFBD2E"/>
    <circle cx="595" cy="162" r="4" fill="#28CA42"/>
    <rect x="610" y="155" width="100" height="10" fill="#E9ECEF" rx="5"/>
    <text x="620" y="163" fill="#495057" font-size="6" font-family="Arial">ConnectPro - Home</text>

    <!-- Browser content -->
    <rect x="555" y="180" width="170" height="85" fill="url(#browserGrad)" rx="2"/>
    <rect x="560" y="185" width="160" height="20" fill="#007ACC" rx="2"/>
    <text x="570" y="197" fill="#FFFFFF" font-size="8" font-family="Arial">ConnectPro</text>
    <rect x="560" y="210" width="50" height="15" fill="#E3F2FD" rx="2"/>
    <text x="565" y="220" fill="#1976D2" font-size="6" font-family="Arial">Login</text>
    <rect x="620" y="210" width="50" height="15" fill="#4CAF50" rx="2"/>
    <text x="625" y="220" fill="#FFFFFF" font-size="6" font-family="Arial">Sign Up</text>
    <rect x="560" y="230" width="160" height="30" fill="#F5F5F5" rx="2"/>
    <text x="565" y="240" fill="#666666" font-size="5" font-family="Arial">Welcome to ConnectPro - Your Professional Network</text>
    <text x="565" y="248" fill="#666666" font-size="5" font-family="Arial">Connect with developers, designers, and managers</text>
  </g>

  <!-- Floating code snippets -->
  <g opacity="0.6">
    <rect x="80" y="150" width="60" height="4" fill="#2E7D32" rx="2"/>
    <rect x="80" y="160" width="45" height="4" fill="#43A047" rx="2"/>
    <rect x="80" y="170" width="55" height="4" fill="#4CAF50" rx="2"/>

    <rect x="650" y="180" width="50" height="4" fill="#2E7D32" rx="2"/>
    <rect x="650" y="190" width="40" height="4" fill="#43A047" rx="2"/>
    <rect x="650" y="200" width="60" height="4" fill="#4CAF50" rx="2"/>
  </g>

  <!-- Enhanced Terminal/Command line -->
  <g filter="url(#softShadow)">
    <rect x="80" y="400" width="200" height="120" fill="#1E1E1E" rx="5"/>
    <rect x="85" y="405" width="190" height="110" fill="#000000" rx="3"/>

    <!-- Terminal header -->
    <circle cx="95" cy="415" r="4" fill="#FF5F57"/>
    <circle cx="110" cy="415" r="4" fill="#FFBD2E"/>
    <circle cx="125" cy="415" r="4" fill="#28CA42"/>
    <text x="140" y="418" fill="#CCCCCC" font-size="6" font-family="Arial">Terminal - ConnectPro</text>

    <!-- Terminal content -->
    <g fill="#00FF00" font-size="8" font-family="monospace">
      <text x="90" y="435">$ git status</text>
      <text x="90" y="445">On branch main</text>
      <text x="90" y="455">Your branch is up to date with 'origin/main'.</text>
      <text x="90" y="465">$ npm run build</text>
      <text x="90" y="475">✓ built in 12.59s</text>
      <text x="90" y="485">dist/  9.34 kB │ gzip: 3.45 kB</text>
      <text x="90" y="495">$ _</text>
    </g>
  </g>
</svg>