<svg className="entry-image" viewBox="0 0 800 600" xmlns="http://www.w3.org/2000/svg">
  <defs>
    <linearGradient id="bgGrad" x1="0%" y1="0%" x2="100%" y2="100%">
      <stop offset="0%" stopColor="#E3F2FD" />
      <stop offset="100%" stopColor="#BBDEFB" />
    </linearGradient>
    <filter id="dropShadow">
      <feDropShadow dx="5" dy="6" stdDeviation="8" floodOpacity="0.3"/>
    </filter>
    <filter id="softShadow">
      <feDropShadow dx="2" dy="3" stdDeviation="3" floodOpacity="0.2"/>
    </filter>
    <radialGradient id="screenGlow" cx="50%" cy="50%" r="50%">
      <stop offset="0%" stopColor="#E8F5E8" />
      <stop offset="100%" stopColor="#C8E6C9" />
    </radialGradient>
    <linearGradient id="codeGrad" x1="0%" y1="0%" x2="100%" y2="0%">
      <stop offset="0%" stopColor="#2E7D32" />
      <stop offset="50%" stopColor="#4CAF50" />
      <stop offset="100%" stopColor="#66BB6A" />
    </linearGradient>
    <linearGradient id="browserGrad" x1="0%" y1="0%" x2="100%" y2="0%">
      <stop offset="0%" stopColor="#FFFFFF" />
      <stop offset="100%" stopColor="#F5F5F5" />
    </linearGradient>
    <linearGradient id="deskWood" x1="0%" y1="0%" x2="100%" y2="100%">
      <stop offset="0%" stopColor="#8D6E63" />
      <stop offset="50%" stopColor="#A1887F" />
      <stop offset="100%" stopColor="#BCAAA4" />
    </linearGradient>
    <radialGradient id="deskGrain" cx="50%" cy="50%" r="50%">
      <stop offset="0%" stopColor="#8D6E63" stopOpacity="0.9"/>
      <stop offset="100%" stopColor="#A1887F" stopOpacity="0.7"/>
    </radialGradient>
  </defs>

  <!-- Background elements -->
  <ellipse cx="400" cy="300" rx="380" ry="280" fill="url(#bgGrad)" opacity="0.4"/>
  <circle cx="150" cy="120" r="80" fill="#E1F5FE" opacity="0.3"/>
  <circle cx="650" cy="480" r="100" fill="#B3E5FC" opacity="0.2"/>

  <!-- Enhanced Desk -->
  <g filter="url(#dropShadow)">
    <!-- Desk legs -->
    <rect x="220" y="380" width="12" height="120" fill="#5D4037" rx="2"/>
    <rect x="568" y="380" width="12" height="120" fill="#5D4037" rx="2"/>
    <rect x="200" y="480" width="400" height="20" fill="#5D4037" rx="5"/>
    <rect x="210" y="485" width="380" height="15" fill="#4E342E" rx="3"/>

    <!-- Desk top with wood grain -->
    <rect x="180" y="350" width="440" height="30" fill="url(#deskWood)" rx="8"/>
    <rect x="185" y="355" width="430" height="20" fill="url(#deskGrain)" rx="6"/>
    <!-- Wood grain lines -->
    <line x1="185" y1="360" x2="615" y2="360" stroke="#8D6E63" strokeWidth="1" opacity="0.3"/>
    <line x1="185" y1="365" x2="615" y2="365" stroke="#8D6E63" strokeWidth="1" opacity="0.3"/>
    <line x1="185" y1="370" x2="615" y2="370" stroke="#8D6E63" strokeWidth="1" opacity="0.3"/>
  </g>

  <!-- Larger Laptop -->
  <g filter="url(#dropShadow)">
    <!-- Laptop base -->
    <rect x="280" y="320" width="240" height="20" fill="#37474F" rx="5"/>
    <rect x="285" y="325" width="230" height="10" fill="#546E7A" rx="3"/>
    <!-- Base details -->
    <rect x="290" y="330" width="220" height="5" fill="#455A64" rx="2"/>
    <circle cx="320" cy="332" r="2" fill="#78909C"/>
    <circle cx="480" cy="332" r="2" fill="#78909C"/>

    <!-- Laptop screen hinge -->
    <rect x="395" y="315" width="10" height="10" fill="#263238" rx="2"/>

    <!-- Laptop screen -->
    <rect x="300" y="160" width="200" height="150" fill="#263238" rx="8"/>
    <rect x="305" y="165" width="190" height="140" fill="url(#screenGlow)" rx="6"/>
    <!-- Screen bezel -->
    <rect x="300" y="160" width="200" height="10" fill="#37474F" rx="8"/>
    <circle cx="315" cy="165" r="3" fill="#FF5722"/>
    <circle cx="330" cy="165" r="3" fill="#FFC107"/>
    <circle cx="345" cy="165" r="3" fill="#4CAF50"/>
    <text x="365" y="168" fill="#FFFFFF" font-size="6" font-family="Arial">MacBook Pro</text>

    <!-- Enhanced IDE Interface -->
    <!-- Menu bar -->
    <rect x="310" y="180" width="180" height="10" fill="#424242" rx="2"/>
    <rect x="312" y="182" width="25" height="6" fill="#757575" rx="1"/>
    <rect x="340" y="182" width="35" height="6" fill="#757575" rx="1"/>
    <rect x="378" y="182" width="30" height="6" fill="#757575" rx="1"/>
    <rect x="411" y="182" width="40" height="6" fill="#757575" rx="1"/>
    <rect x="454" y="182" width="15" height="6" fill="#757575" rx="1"/>
    <rect x="472" y="182" width="15" height="6" fill="#757575" rx="1"/>

    <!-- Tabs -->
    <rect x="310" y="195" width="45" height="8" fill="#2D2D30" rx="2"/>
    <rect x="358" y="195" width="45" height="8" fill="#007ACC" rx="2"/>
    <rect x="406" y="195" width="45" height="8" fill="#2D2D30" rx="2"/>
    <rect x="454" y="195" width="36" height="8" fill="#2D2D30" rx="2"/>
    <text x="320" y="201" fill="#CCCCCC" font-size="6" font-family="Arial">App.jsx</text>
    <text x="368" y="201" fill="#FFFFFF" font-size="6" font-family="Arial">HomePage.jsx</text>
    <text x="416" y="201" fill="#CCCCCC" font-size="6" font-family="Arial">UserProfile.jsx</text>
    <text x="464" y="201" fill="#CCCCCC" font-size="6" font-family="Arial">...</text>

    <!-- File Explorer Sidebar -->
    <rect x="310" y="208" width="30" height="92" fill="#252526" rx="2"/>
    <text x="315" y="220" fill="#CCCCCC" font-size="6" font-family="Arial">📁 src</text>
    <text x="320" y="230" fill="#CCCCCC" font-size="5" font-family="Arial">📄 App.jsx</text>
    <text x="320" y="238" fill="#CCCCCC" font-size="5" font-family="Arial">📄 main.jsx</text>
    <text x="320" y="246" fill="#CCCCCC" font-size="5" font-family="Arial">📁 Components</text>
    <text x="320" y="254" fill="#CCCCCC" font-size="5" font-family="Arial">📁 Pages</text>
    <text x="320" y="262" fill="#CCCCCC" font-size="5" font-family="Arial">📁 Services</text>
    <text x="320" y="270" fill="#CCCCCC" font-size="5" font-family="Arial">📁 Utils</text>

    <!-- Code editor area -->
    <rect x="345" y="208" width="135" height="92" fill="#1E1E1E" rx="2"/>

    <!-- Line numbers -->
    <g fill="#858585" font-size="7" font-family="monospace">
      <text x="350" y="220">1</text>
      <text x="350" y="230">2</text>
      <text x="350" y="240">3</text>
      <text x="350" y="250">4</text>
      <text x="350" y="260">5</text>
      <text x="350" y="270">6</text>
      <text x="350" y="280">7</text>
      <text x="350" y="290">8</text>
      <text x="350" y="300">9</text>
    </g>

    <!-- Enhanced Code content -->
    <g font-size="7" font-family="monospace">
      <!-- Line 1 -->
      <text x="355" y="220" fill="#569CD6">import</text>
      <text x="385" y="220" fill="#D4D4D4">React</text>
      <text x="410" y="220" fill="#D4D4D4">from</text>
      <text x="430" y="220" fill="#CE9178">'react'</text>

      <!-- Line 2 -->
      <text x="355" y="230" fill="#569CD6">import</text>
      <text x="385" y="230" fill="#D4D4D4">HomePage</text>
      <text x="425" y="230" fill="#D4D4D4">from</text>
      <text x="445" y="230" fill="#CE9178">'./Pages/HomePage'</text>

      <!-- Line 3 -->
      <text x="355" y="240" fill="#569CD6">function</text>
      <text x="395" y="240" fill="#DCDCAA">App</text>
      <text x="410" y="240" fill="#D4D4D4">() {</text>

      <!-- Line 4 -->
      <text x="365" y="250" fill="#C586C0">  return</text>
      <text x="395" y="250" fill="#D4D4D4">(</text>

      <!-- Line 5 -->
      <text x="375" y="260" fill="#D4D4D4">    &lt;</text>
      <text x="385" y="260" fill="#4EC9B0">div</text>
      <text x="400" y="260" fill="#9CDCFE">className</text>
      <text x="435" y="260" fill="#D4D4D4">=</text>
      <text x="440" y="260" fill="#CE9178">"app"</text>
      <text x="450" y="260" fill="#D4D4D4">&gt;</text>

      <!-- Line 6 -->
      <text x="385" y="270" fill="#D4D4D4">      &lt;</text>
      <text x="395" y="270" fill="#4EC9B0">HomePage</text>
      <text x="430" y="270" fill="#D4D4D4">/&gt;</text>

      <!-- Line 7 -->
      <text x="375" y="280" fill="#D4D4D4">    &lt;/</text>
      <text x="385" y="280" fill="#4EC9B0">div</text>
      <text x="400" y="280" fill="#D4D4D4">&gt;</text>

      <!-- Line 8 -->
      <text x="365" y="290" fill="#D4D4D4">  );</text>

      <!-- Line 9 -->
      <text x="355" y="300" fill="#D4D4D4">}</text>
    </g>
  </g>

  <!-- Enhanced Keyboard -->
  <g filter="url(#softShadow)">
    <rect x="290" y="340" width="220" height="12" fill="#424242" rx="3"/>
    <rect x="295" y="345" width="210" height="5" fill="#616161" rx="2"/>

    <!-- Function keys row -->
    <g fill="#757575">
      <rect x="300" y="348" width="6" height="6" rx="1"/>
      <rect x="308" y="348" width="6" height="6" rx="1"/>
      <rect x="316" y="348" width="6" height="6" rx="1"/>
      <rect x="324" y="348" width="6" height="6" rx="1"/>
      <rect x="332" y="348" width="6" height="6" rx="1"/>
      <rect x="340" y="348" width="6" height="6" rx="1"/>
      <rect x="348" y="348" width="6" height="6" rx="1"/>
      <rect x="356" y="348" width="6" height="6" rx="1"/>
      <rect x="364" y="348" width="6" height="6" rx="1"/>
      <rect x="372" y="348" width="6" height="6" rx="1"/>
      <rect x="380" y="348" width="6" height="6" rx="1"/>
      <rect x="388" y="348" width="6" height="6" rx="1"/>
      <rect x="396" y="348" width="6" height="6" rx="1"/>
      <rect x="404" y="348" width="6" height="6" rx="1"/>
      <rect x="412" y="348" width="6" height="6" rx="1"/>
      <rect x="420" y="348" width="6" height="6" rx="1"/>
      <rect x="428" y="348" width="6" height="6" rx="1"/>
      <rect x="436" y="348" width="6" height="6" rx="1"/>
      <rect x="444" y="348" width="6" height="6" rx="1"/>
      <rect x="452" y="348" width="6" height="6" rx="1"/>
      <rect x="460" y="348" width="6" height="6" rx="1"/>
      <rect x="468" y="348" width="6" height="6" rx="1"/>
      <rect x="476" y="348" width="6" height="6" rx="1"/>
      <rect x="484" y="348" width="6" height="6" rx="1"/>
      <rect x="492" y="348" width="6" height="6" rx="1"/>
    </g>

    <!-- Main keys -->
    <g fill="#757575">
      <rect x="302" y="356" width="8" height="8" rx="1"/>
      <rect x="312" y="356" width="8" height="8" rx="1"/>
      <rect x="322" y="356" width="8" height="8" rx="1"/>
      <rect x="332" y="356" width="8" height="8" rx="1"/>
      <rect x="342" y="356" width="8" height="8" rx="1"/>
      <rect x="352" y="356" width="8" height="8" rx="1"/>
      <rect x="362" y="356" width="8" height="8" rx="1"/>
      <rect x="372" y="356" width="8" height="8" rx="1"/>
      <rect x="382" y="356" width="8" height="8" rx="1"/>
      <rect x="392" y="356" width="8" height="8" rx="1"/>
      <rect x="402" y="356" width="8" height="8" rx="1"/>
      <rect x="412" y="356" width="8" height="8" rx="1"/>
      <rect x="422" y="356" width="8" height="8" rx="1"/>
      <rect x="432" y="356" width="8" height="8" rx="1"/>
      <rect x="442" y="356" width="8" height="8" rx="1"/>
      <rect x="452" y="356" width="8" height="8" rx="1"/>
      <rect x="462" y="356" width="8" height="8" rx="1"/>
      <rect x="472" y="356" width="8" height="8" rx="1"/>
      <rect x="482" y="356" width="8" height="8" rx="1"/>
    </g>
  </g>

  <!-- Enhanced Mouse -->
  <g filter="url(#softShadow)">
    <!-- Mouse body -->
    <ellipse cx="550" cy="380" rx="16" ry="24" fill="#E0E0E0"/>
    <ellipse cx="550" cy="380" rx="14" ry="22" fill="#F5F5F5"/>
    <!-- Mouse buttons -->
    <rect x="540" y="365" width="20" height="3" fill="#BDBDBD" rx="1"/>
    <line x1="550" y1="365" x2="550" y2="368" stroke="#9E9E9E" strokeWidth="1"/>
    <!-- Scroll wheel -->
    <ellipse cx="550" cy="395" rx="6" ry="8" fill="#BDBDBD"/>
    <ellipse cx="550" cy="395" rx="4" ry="6" fill="#9E9E9E"/>
    <rect x="548" y="393" width="4" height="1" fill="#757575"/>
    <rect x="548" y="395" width="4" height="1" fill="#757575"/>
    <rect x="548" y="397" width="4" height="1" fill="#757575"/>
    <!-- USB receiver -->
    <rect x="545" y="405" width="10" height="4" fill="#424242" rx="1"/>
    <rect x="547" y="406" width="6" height="2" fill="#FFD700" rx="0.5"/>
  </g>

  <!-- Coffee mug -->
  <g filter="url(#softShadow)">
    <ellipse cx="620" cy="380" rx="18" ry="8" fill="#8D6E63"/>
    <rect x="602" y="320" width="36" height="60" fill="#FFFFFF" rx="4"/>
    <rect x="605" y="323" width="30" height="54" fill="#F5F5F5" rx="3"/>
    <rect x="602" y="350" width="3" height="3" fill="#8D6E63"/>
    <ellipse cx="620" cy="320" rx="18" ry="6" fill="#8D6E63"/>
    <ellipse cx="620" cy="320" rx="15" ry="4" fill="#A1887F"/>
  </g>

  <!-- Plant -->
  <g filter="url(#softShadow)">
    <rect x="120" y="320" width="8" height="80" fill="#8D6E63" rx="4"/>
    <ellipse cx="124" cy="320" rx="12" ry="8" fill="#8D6E63"/>
    <ellipse cx="124" cy="320" rx="10" ry="6" fill="#A1887F"/>

    <!-- Leaves -->
    <ellipse cx="100" cy="300" rx="25" ry="15" fill="#4CAF50" transform="rotate(-30 100 300)"/>
    <ellipse cx="110" cy="290" rx="20" ry="12" fill="#66BB6A" transform="rotate(-15 110 290)"/>
    <ellipse cx="140" cy="285" rx="22" ry="14" fill="#81C784" transform="rotate(25 140 285)"/>
    <ellipse cx="150" cy="300" rx="18" ry="11" fill="#A5D6A7" transform="rotate(45 150 300)"/>
    <ellipse cx="130" cy="275" rx="15" ry="10" fill="#4CAF50" transform="rotate(10 130 275)"/>
  </g>

  <!-- Browser Window -->
  <g filter="url(#dropShadow)">
    <rect x="580" y="120" width="200" height="140" fill="#FFFFFF" rx="8"/>
    <rect x="580" y="120" width="200" height="30" fill="#F8F9FA" rx="8"/>
    <circle cx="595" cy="135" r="4" fill="#FF5F57"/>
    <circle cx="615" cy="135" r="4" fill="#FFBD2E"/>
    <circle cx="635" cy="135" r="4" fill="#28CA42"/>
    <rect x="655" y="128" width="110" height="12" fill="#E9ECEF" rx="6"/>
    <text x="665" y="137" fill="#495057" font-size="7" font-family="Arial">ConnectPro - Home</text>

    <!-- Browser content -->
    <rect x="585" y="155" width="190" height="100" fill="url(#browserGrad)" rx="4"/>
    <rect x="590" y="160" width="180" height="25" fill="#007ACC" rx="4"/>
    <text x="600" y="175" fill="#FFFFFF" font-size="9" font-family="Arial">ConnectPro</text>
    <rect x="590" y="190" width="55" height="18" fill="#E3F2FD" rx="4"/>
    <text x="595" y="201" fill="#1976D2" font-size="7" font-family="Arial">Login</text>
    <rect x="655" y="190" width="55" height="18" fill="#4CAF50" rx="4"/>
    <text x="660" y="201" fill="#FFFFFF" font-size="7" font-family="Arial">Sign Up</text>
    <rect x="590" y="215" width="180" height="35" fill="#F5F5F5" rx="4"/>
    <text x="595" y="225" fill="#666666" font-size="6" font-family="Arial">Welcome to ConnectPro - Your Professional Network</text>
    <text x="595" y="235" fill="#666666" font-size="6" font-family="Arial">Connect with developers, designers, and managers</text>
  </g>

  <!-- Floating code snippets -->
  <g opacity="0.6">
    <rect x="80" y="150" width="60" height="4" fill="#2E7D32" rx="2"/>
    <rect x="80" y="160" width="45" height="4" fill="#43A047" rx="2"/>
    <rect x="80" y="170" width="55" height="4" fill="#4CAF50" rx="2"/>

    <rect x="650" y="180" width="50" height="4" fill="#2E7D32" rx="2"/>
    <rect x="650" y="190" width="40" height="4" fill="#43A047" rx="2"/>
    <rect x="650" y="200" width="60" height="4" fill="#4CAF50" rx="2"/>
  </g>

  <!-- Enhanced Terminal/Command line -->
  <g filter="url(#softShadow)">
    <rect x="80" y="400" width="220" height="130" fill="#1E1E1E" rx="8"/>
    <rect x="85" y="405" width="210" height="120" fill="#000000" rx="6"/>

    <!-- Terminal header -->
    <circle cx="100" cy="415" r="4" fill="#FF5F57"/>
    <circle cx="118" cy="415" r="4" fill="#FFBD2E"/>
    <circle cx="136" cy="415" r="4" fill="#28CA42"/>
    <text x="155" y="418" fill="#CCCCCC" font-size="7" font-family="Arial">Terminal - ConnectPro</text>

    <!-- Terminal content -->
    <g fill="#00FF00" font-size="9" font-family="monospace">
      <text x="95" y="440">$ git status</text>
      <text x="95" y="452">On branch main</text>
      <text x="95" y="464">Your branch is up to date with 'origin/main'.</text>
      <text x="95" y="476">$ npm run build</text>
      <text x="95" y="488">✓ built in 12.59s</text>
      <text x="95" y="500">dist/  9.34 kB │ gzip: 3.45 kB</text>
      <text x="95" y="512">$ _</text>
    </g>
  </g>
</svg>